<svg width="65" height="44" viewBox="0 0 65 44" fill="none" xmlns="http://www.w3.org/2000/svg">
<path d="M45.491 14.2617H17.9741C17.3971 14.2617 16.928 14.7325 16.9783 15.2855C17.5814 21.8704 23.9566 27.052 31.7316 27.052C39.5066 27.052 45.8819 21.8704 46.485 15.2855C46.5371 14.7325 46.068 14.2617 45.491 14.2617Z" fill="#FF6633"/>
<path d="M26.7653 4.40841C26.4581 4.40841 26.1529 4.27596 25.9537 4.0218C24.9486 2.75101 23.0388 1.95989 20.9708 1.95989C18.9028 1.95989 16.993 2.74922 15.9879 4.0218C15.6472 4.45316 15.0069 4.53549 14.5602 4.20795C14.1116 3.88041 14.026 3.2647 14.3666 2.83513C15.7701 1.05959 18.2383 0 20.9708 0C23.7033 0 26.1715 1.05959 27.5768 2.83513C27.9175 3.26648 27.83 3.88041 27.3833 4.20795C27.1971 4.34398 26.9812 4.40841 26.7653 4.40841Z" fill="#414141"/>
<path d="M48.2887 4.40841C47.9816 4.40841 47.6763 4.27596 47.4771 4.0218C46.472 2.75101 44.5622 1.95989 42.4942 1.95989C40.4262 1.95989 38.5164 2.74922 37.5113 4.0218C37.1707 4.45316 36.5303 4.53549 36.0836 4.20795C35.635 3.88041 35.5494 3.2647 35.89 2.83513C37.2935 1.05959 39.7617 0 42.4942 0C45.2267 0 47.6949 1.05959 49.1003 2.83513C49.4409 3.26648 49.3534 3.88041 48.9067 4.20795C48.7206 4.34398 48.5046 4.40841 48.2887 4.40841Z" fill="#414141"/>
<path d="M3.35197 30.0031L2.95178 31.0216C2.91641 31.1057 2.78797 31.1397 2.66885 31.0985C2.39708 31.0198 2.11601 30.8784 1.82192 30.6707C1.52968 30.4667 1.29887 30.2501 1.12762 30.0228C0.868886 29.6774 0.688332 29.3015 0.587817 28.9006C0.491025 28.4961 0.476134 28.1059 0.533837 27.7229C0.595263 27.3434 0.736728 26.9765 0.956371 26.6257C1.17788 26.2749 1.46267 25.976 1.82005 25.729C2.17558 25.482 2.56089 25.3137 2.97597 25.2224C3.39106 25.1311 3.79871 25.1168 4.19332 25.1813C4.59352 25.2457 4.97324 25.3835 5.33807 25.6001C5.70663 25.8149 6.0212 26.0977 6.27993 26.4431C6.4456 26.6651 6.5852 26.9461 6.69316 27.2808C6.80484 27.6155 6.86068 27.9287 6.85882 28.2222C6.86068 28.3404 6.7732 28.4299 6.67641 28.4334L5.54841 28.4639C5.44045 28.4639 5.3511 28.3672 5.3511 28.2294C5.35482 28.0629 5.33249 27.8947 5.27851 27.7193C5.22453 27.5439 5.15566 27.3989 5.07003 27.2843C4.79269 26.9156 4.42413 26.6919 3.96251 26.6203C3.50461 26.5469 3.08766 26.6436 2.70421 26.9085C2.32449 27.1716 2.0974 27.5224 2.02667 27.9645C1.95966 28.403 2.0639 28.8111 2.34124 29.1798C2.42687 29.2944 2.54413 29.4017 2.69677 29.502C2.85126 29.604 3.00203 29.681 3.15653 29.7293C3.3073 29.7758 3.39106 29.8957 3.35197 30.0031Z" fill="#414141"/>
<path d="M7.85454 28.8361C7.94761 28.7377 8.06674 28.7341 8.16726 28.8236L11.0636 31.3831C11.1659 31.4726 11.1697 31.5872 11.0766 31.6838L10.4251 32.364C10.3265 32.4678 10.2204 32.4713 10.1124 32.3765L8.15795 30.6493L7.47296 31.3652L8.95648 32.6772C9.06817 32.7756 9.07934 32.8937 8.97882 32.9976L8.44088 33.5596C8.34781 33.658 8.2231 33.6562 8.11328 33.5596L6.62975 32.2476L5.92615 32.985L7.8806 34.7122C8.01835 34.834 8.02951 34.9915 7.91225 35.1114L7.30171 35.7504C7.21051 35.8452 7.08952 35.847 6.989 35.7575L4.03312 33.1479C3.93074 33.0584 3.9233 32.9474 4.01637 32.849L7.85454 28.8361Z" fill="#414141"/>
<path d="M14.1204 37.2577C14.1129 37.5423 14.0292 37.8089 13.8672 38.0577C13.5601 38.532 13.1618 38.8041 12.6722 38.8757C12.1864 38.9491 11.6559 38.8166 11.0845 38.473L9.07232 37.2666C8.97925 37.2111 8.96249 37.1395 9.01834 37.0536L12.0822 32.3284C12.138 32.2425 12.2125 32.2264 12.3037 32.2819L14.1669 33.3987C14.7123 33.7263 15.0529 34.1057 15.1907 34.5389C15.3284 34.972 15.2503 35.4177 14.9562 35.8723C14.7198 36.2374 14.3065 36.4773 13.8914 36.4898C14.0515 36.7189 14.1278 36.9731 14.1204 37.2577ZM11.7862 37.3561C12.1157 37.5548 12.4545 37.4814 12.6555 37.1718C12.8528 36.8675 12.7653 36.5543 12.434 36.3574L11.5889 35.8508L10.9411 36.8496L11.7862 37.3561ZM12.7374 34.0825L12.1901 34.9255L12.8882 35.3443C13.1692 35.5126 13.4484 35.4535 13.616 35.194C13.7835 34.9344 13.7146 34.6695 13.4335 34.5013L12.7374 34.0825Z" fill="#414141"/>
<path d="M16.9654 35.1866C17.0176 35.0631 17.1255 35.0184 17.2539 35.0685L20.9041 36.4771C21.0326 36.5272 21.0791 36.6311 21.027 36.7546L20.6696 37.6119C20.6156 37.7425 20.517 37.7819 20.3811 37.73L17.9166 36.7796L17.5406 37.6817L19.4113 38.403C19.5509 38.4567 19.6049 38.5641 19.5509 38.6948L19.2549 39.4035C19.2028 39.527 19.0874 39.5682 18.9478 39.5145L17.0771 38.7932L16.69 39.7221L19.1544 40.6725C19.3294 40.7406 19.3964 40.882 19.3313 41.0359L18.9943 41.8413C18.9441 41.9612 18.8324 42.0042 18.704 41.9541L14.9793 40.5168C14.8509 40.4667 14.8025 40.3665 14.8546 40.243L16.9654 35.1866Z" fill="#414141"/>
<path d="M24.4766 37.3452C25.1132 37.4794 25.5879 37.7694 25.9006 38.2186C26.2133 38.6643 26.3045 39.1887 26.1649 39.7937C26.029 40.3915 25.7182 40.8282 25.2398 41.1057C24.7614 41.3795 24.2067 41.4511 23.5683 41.3169L22.8535 41.1665L22.4961 42.7291C22.4663 42.8579 22.3677 42.9206 22.2244 42.8902L21.1783 42.67C21.0442 42.6414 20.9847 42.5465 21.0126 42.4176L22.2281 37.0964C22.256 36.9747 22.3621 36.9031 22.4887 36.9299L23.0154 37.0409L23.5459 37.1537L24.4766 37.3452ZM23.8028 40.0103C24.0113 40.055 24.2012 40.0246 24.3668 39.9244C24.5362 39.8241 24.6423 39.6738 24.6888 39.4733C24.7354 39.2729 24.7037 39.0939 24.5939 38.9346C24.4897 38.7717 24.3296 38.6679 24.1211 38.6249L23.4678 38.4871L23.1513 39.8742L23.8028 40.0103Z" fill="#414141"/>
<path d="M31.7765 38.1312C31.9068 38.1383 31.9887 38.2314 31.9812 38.3549L31.6685 43.7996C31.6611 43.9321 31.5773 44.009 31.4396 44.0001L30.3711 43.9428C30.2241 43.9357 30.1459 43.8497 30.1534 43.7173L30.2464 42.0957L29.6247 42.0635L28.6363 43.6708C28.5488 43.8068 28.493 43.8444 28.372 43.8372L27.123 43.771C26.989 43.7638 26.922 43.6314 26.9946 43.5186L28.1728 41.6679C27.5958 41.2956 27.2831 40.671 27.3259 39.9353C27.3613 39.3214 27.5902 38.8382 28.0165 38.4891C28.4427 38.1365 28.9844 37.9808 29.6359 38.0148L31.5029 38.1133L31.7765 38.1312ZM30.319 40.8392L30.4028 39.3769L29.6229 39.3357C29.4051 39.325 29.2227 39.3823 29.0775 39.5076C28.9323 39.6328 28.8522 39.7975 28.8392 40.0069C28.828 40.2163 28.8876 40.3953 29.0179 40.551C29.1519 40.7032 29.3269 40.7855 29.5391 40.7963L30.319 40.8392Z" fill="#414141"/>
<path d="M38.3849 37.5528C38.4891 37.5402 38.5487 37.5868 38.5617 37.6906L39.2504 43.2177C39.2635 43.3215 39.2151 43.3788 39.1127 43.3913L37.9382 43.5273C37.8339 43.5398 37.7744 43.4933 37.7613 43.3895L37.4877 41.1933L35.2168 41.4547L35.4904 43.6508C35.5035 43.7546 35.4551 43.8119 35.3527 43.8244L34.1819 43.9587C34.0739 43.9712 34.0144 43.9247 34.0013 43.8209L33.3126 38.2938C33.2996 38.19 33.348 38.1327 33.4559 38.1202L34.6268 37.9859C34.731 37.9734 34.7906 38.0199 34.8036 38.1237L35.0549 40.1409L37.3258 39.8796L37.0745 37.8624C37.0615 37.7586 37.1098 37.7013 37.2122 37.6888L38.3849 37.5528Z" fill="#414141"/>
<path d="M40.2982 38.9773C40.3317 38.5638 40.4396 38.1861 40.6183 37.8461C40.8008 37.5042 41.052 37.1964 41.3741 36.9279C41.6942 36.6558 42.0609 36.4554 42.4779 36.3229C42.8948 36.1905 43.3136 36.1421 43.7362 36.1779C44.1606 36.2084 44.5533 36.3122 44.907 36.484C45.2644 36.654 45.5864 36.8957 45.8656 37.2089C46.1485 37.5167 46.357 37.8693 46.4947 38.2703C46.6771 38.8019 46.7106 39.3334 46.5971 39.8597C46.4836 40.3877 46.2434 40.853 45.8656 41.2575C45.4933 41.6602 45.028 41.9466 44.4714 42.1238C44.0545 42.2563 43.6356 42.3046 43.2112 42.2742C42.785 42.2402 42.3922 42.1364 42.0349 41.9663C41.6812 41.7945 41.361 41.5546 41.08 41.2486C40.8026 40.9389 40.5923 40.5863 40.4564 40.189C40.3168 39.7881 40.2665 39.3853 40.2982 38.9773ZM42.718 40.6597C43.1256 40.8566 43.5519 40.8817 43.9968 40.7403C44.4379 40.6007 44.7599 40.3358 44.9665 39.9456C45.1713 39.5536 45.2048 39.1509 45.0577 38.7267C44.9107 38.2989 44.6333 37.9893 44.2257 37.7924C43.8181 37.5955 43.3937 37.5651 42.9544 37.7047C42.5132 37.8443 42.1875 38.1128 41.9827 38.5047C41.778 38.8967 41.7463 39.3048 41.8934 39.7308C42.0386 40.1568 42.3122 40.4628 42.718 40.6597Z" fill="#414141"/>
<path d="M50.4478 32.774C50.5483 32.7185 50.673 32.7561 50.7382 32.8635L53.5675 37.5815C53.6289 37.6818 53.5954 37.8124 53.4893 37.8697L52.5512 38.3888C52.4469 38.4478 52.3185 38.4102 52.2571 38.31L51.3022 36.7188C51.1849 37.1037 50.8982 37.4706 50.4943 37.6961C49.8708 38.0415 49.2491 38.131 48.6311 37.9682C48.0112 37.8017 47.5105 37.4026 47.1308 36.7689L46.2727 35.3371C46.2113 35.2368 46.2392 35.1044 46.3379 35.0507L47.2685 34.5352C47.384 34.4708 47.5198 34.503 47.5831 34.6104L48.4394 36.0387C48.767 36.5846 49.2975 36.7224 49.867 36.4074C50.1537 36.2481 50.3287 36.0441 50.405 35.7935C50.4813 35.5429 50.4422 35.2852 50.2858 35.0238L49.4259 33.5884C49.3645 33.4881 49.3961 33.3539 49.4985 33.2984L50.4478 32.774Z" fill="#414141"/>
<path d="M59.7314 32.6C59.8747 32.634 59.9436 32.7628 59.8356 32.8559L58.8007 33.7455C58.7356 33.801 58.6574 33.826 58.5736 33.8153L55.8876 33.1459L55.2455 33.6971L56.7309 35.2955C56.8034 35.3742 56.7997 35.4476 56.7215 35.5139L55.8337 36.2781C55.7518 36.3479 55.6754 36.3443 55.6029 36.2656L51.7498 32.1185C51.6809 32.0433 51.6846 31.9699 51.7647 31.9001L52.6526 31.1359C52.7307 31.0696 52.8071 31.0732 52.8778 31.1484L54.2924 32.6716L54.795 32.2402L54.5586 29.6986C54.5437 29.5447 54.5921 29.482 54.7019 29.3872L55.7276 28.5066C55.843 28.4081 55.9695 28.4833 55.9826 28.6426L56.2599 31.748L59.7314 32.6Z" fill="#414141"/>
<path d="M64.3453 26.6724C64.4886 26.7064 64.5463 26.8084 64.4533 26.9373L63.7701 27.8716C63.7031 27.9629 63.5747 28.0005 63.4518 27.9718L62.6366 27.7445L61.4173 29.4109L61.9143 30.066C61.9907 30.1572 61.9962 30.2897 61.9218 30.3899L61.2405 31.3206C61.1512 31.4424 61.0339 31.437 60.9446 31.3117L57.5959 26.4218C57.5215 26.3073 57.5252 26.1766 57.5922 26.0853L58.1004 25.3909C58.1674 25.2996 58.3014 25.2566 58.4261 25.287L64.3453 26.6724ZM60.63 28.3763L61.3559 27.383L59.4778 26.855L60.63 28.3763Z" fill="#414141"/>
</svg>
