<svg width="216" height="200" viewBox="0 0 216 200" fill="none" xmlns="http://www.w3.org/2000/svg">
<path d="M13.0389 19.9933L-15.1962 -5.32353C-15.7877 -5.85395 -16.7229 -5.78292 -17.2022 -5.13914C-22.9205 2.48561 -21.3687 13.9145 -13.3916 21.0672C-5.41454 28.2198 6.11298 28.5231 13.0735 22.0075C13.6588 21.4587 13.6304 20.5237 13.0389 19.9933Z" fill="#FF6633"/>
<path d="M159.221 192.796L187.456 218.113C188.047 218.643 188.983 218.572 189.462 217.928C195.18 210.303 193.629 198.875 185.651 191.722C177.674 184.569 166.147 184.266 159.186 190.782C158.601 191.33 158.629 192.265 159.221 192.796Z" fill="#FF6633"/>
<path d="M191.078 69.1121L161.714 45.114C161.099 44.6112 160.168 44.7249 159.718 45.39C154.355 53.2684 156.428 64.6143 164.724 71.3944C173.02 78.1745 184.55 77.9499 191.205 71.1227C191.764 70.5476 191.693 69.6149 191.078 69.1121Z" fill="#FF6633"/>
<path d="M0.597638 152.597L27.3062 125.675C27.8658 125.111 27.842 124.174 27.2233 123.662C19.8966 117.567 8.40395 118.54 0.858102 126.146C-6.68775 133.753 -7.572 145.25 -1.41579 152.531C-0.897192 153.143 0.0380531 153.162 0.597638 152.597Z" fill="#FF6633"/>
<path d="M-5.08468 91.3226C-10.6525 91.914 -16.1277 83.3389 -17.3139 72.1697C-18.5001 61.0005 -14.9481 51.4667 -9.38029 50.8754C-3.81245 50.284 1.66278 58.8591 2.84898 70.0283C4.03518 81.1975 0.483157 90.7313 -5.08468 91.3226Z" fill="#FCA21C"/>
<path d="M180.571 110.582C186.139 109.99 191.614 118.565 192.8 129.735C193.986 140.904 190.434 150.438 184.867 151.029C179.299 151.62 173.824 143.045 172.637 131.876C171.451 120.707 175.003 111.173 180.571 110.582Z" fill="#FCA21C"/>
<path d="M119.855 4.90584C123.476 7.50851 121.097 17.0118 114.541 26.1321C107.985 35.2524 99.7353 40.5359 96.1145 37.9333C92.4938 35.3306 94.8732 25.8273 101.429 16.707C107.985 7.58673 116.235 2.30317 119.855 4.90584Z" fill="#FCA21C"/>
<path d="M65.9784 159.896C61.5455 159.413 58.9376 149.97 60.1536 138.804C61.3695 127.638 65.9488 118.977 70.3817 119.46C74.8146 119.943 77.4225 129.386 76.2066 140.552C74.9906 151.718 70.4113 160.378 65.9784 159.896Z" fill="#FCA21C"/>
<path fill-rule="evenodd" clip-rule="evenodd" d="M68.3295 64.6262C70.1844 67.2198 69.5838 70.8209 66.9882 72.6696C61.1432 76.8326 53.2771 78.0686 45.827 75.648C38.3768 73.2273 32.7409 67.603 30.4589 60.8012C29.4452 57.78 31.0757 54.5135 34.1007 53.5052C37.1256 52.4968 40.3995 54.1286 41.4131 57.1497C42.49 60.3594 45.2994 63.3515 49.3904 64.6808C53.4828 66.0104 57.5143 65.2411 60.2713 63.2775C62.8669 61.4288 66.4747 62.0327 68.3295 64.6262Z" fill="#70C05B"/>
<path fill-rule="evenodd" clip-rule="evenodd" d="M110.577 135.599C108.722 133.006 109.322 129.405 111.918 127.556C117.763 123.393 125.629 122.157 133.079 124.578C140.529 126.998 146.165 132.623 148.447 139.424C149.461 142.446 147.831 145.712 144.806 146.72C141.781 147.729 138.507 146.097 137.493 143.076C136.416 139.866 133.607 136.874 129.516 135.545C125.423 134.215 121.392 134.984 118.635 136.948C116.039 138.797 112.432 138.193 110.577 135.599Z" fill="#70C05B"/>
<path fill-rule="evenodd" clip-rule="evenodd" d="M168.271 -0.775651C167.761 -3.92321 169.899 -6.8828 173.046 -7.38606C180.132 -8.51938 187.728 -6.13258 193.328 -0.654445C198.927 4.82377 201.478 12.3662 200.501 19.4738C200.067 22.6308 197.155 24.8331 193.997 24.3928C190.839 23.9524 188.631 21.0362 189.065 17.8793C189.526 14.5253 188.338 10.5966 185.263 7.58844C182.188 4.57929 178.234 3.4777 174.892 4.01226C171.745 4.51553 168.781 2.37191 168.271 -0.775651Z" fill="#70C05B"/>
<path fill-rule="evenodd" clip-rule="evenodd" d="M78.698 200.053C80.9525 202.308 80.9498 205.959 78.6919 208.208C73.6074 213.272 66.0499 215.779 58.304 214.611C50.5579 213.443 44.0772 208.817 40.7122 202.481C39.2176 199.667 40.2912 196.177 43.1102 194.687C45.9292 193.197 49.426 194.271 50.9207 197.085C52.5085 200.075 55.77 202.567 60.0235 203.208C64.2783 203.85 68.1294 202.431 70.5277 200.042C72.7856 197.793 76.4436 197.798 78.698 200.053Z" fill="#70C05B"/>
<path d="M44.7235 3.95806C43.2204 1.71707 43.8186 -1.3181 46.0596 -2.82118L69.797 -18.7424C72.0379 -20.2455 75.0731 -19.6473 76.5762 -17.4063L81.2709 -10.4068C82.774 -8.16583 82.1758 -5.13066 79.9348 -3.62758L56.1975 12.2936C53.9565 13.7967 50.9213 13.1985 49.4182 10.9575L44.7235 3.95806Z" fill="#1CB9FC"/>
<path d="M98.3586 177.491C97.783 174.855 99.4535 172.251 102.09 171.676L130.014 165.579C132.651 165.003 135.254 166.674 135.83 169.31L137.628 177.544C138.203 180.181 136.533 182.784 133.896 183.36L105.972 189.457C103.336 190.032 100.732 188.362 100.156 185.725L98.3586 177.491Z" fill="#1CB9FC"/>
<path d="M126.496 99.1413C124.482 100.937 121.394 100.761 119.597 98.7474L100.571 77.4177C98.7752 75.404 98.9515 72.3155 100.965 70.5193L107.255 64.909C109.268 63.1128 112.357 63.2892 114.153 65.3029L133.179 86.6326C134.975 88.6463 134.799 91.7348 132.785 93.531L126.496 99.1413Z" fill="#1CB9FC"/>
<path d="M-6.34081 173.558C-3.68133 173.102 -1.1553 174.887 -0.698774 177.547L4.13694 205.717C4.59346 208.377 2.80762 210.903 0.148131 211.359L-8.15847 212.785C-10.818 213.242 -13.344 211.456 -13.8005 208.796L-18.6362 180.626C-19.0928 177.967 -17.3069 175.441 -14.6474 174.984L-6.34081 173.558Z" fill="#1CB9FC"/>
</svg>
