<svg width="152" height="32" viewBox="0 0 152 32" fill="none" xmlns="http://www.w3.org/2000/svg">
<path d="M35.6679 16.8193H4.28525C3.62774 16.8193 3.09082 17.3767 3.15111 18.0346C3.84021 25.8491 11.1102 32.0002 19.9766 32.0002C28.843 32.0002 36.113 25.852 36.8021 18.0346C36.8595 17.3767 36.3254 16.8193 35.6679 16.8193Z" fill="#FF6633"/>
<path fill-rule="evenodd" clip-rule="evenodd" d="M0.225147 3.33137C1.7887 1.27854 4.60645 0 7.711 0C10.8155 0 13.6333 1.27854 15.1969 3.33137C15.5659 3.81589 15.4714 4.50716 14.9858 4.87537C14.5001 5.24357 13.8073 5.14928 13.4383 4.66476C12.3661 3.25707 10.2569 2.20377 7.711 2.20377C5.16509 2.20377 3.05591 3.25707 1.98374 4.66476C1.6147 5.14928 0.921857 5.24357 0.436236 4.87537C-0.0493858 4.50716 -0.143894 3.81589 0.225147 3.33137Z" fill="#414141"/>
<path fill-rule="evenodd" clip-rule="evenodd" d="M24.7681 3.33137C26.3317 1.27854 29.1494 0 32.254 0C35.3562 0 38.1731 1.27884 39.7391 3.33045C40.1087 3.81458 40.0149 4.50596 39.5297 4.87467C39.0444 5.24338 38.3515 5.14981 37.9819 4.66568C36.9065 3.25676 34.7965 2.20377 32.254 2.20377C29.7081 2.20377 27.5989 3.25707 26.5267 4.66476C26.1577 5.14928 25.4648 5.24357 24.9792 4.87537C24.4936 4.50716 24.3991 3.81589 24.7681 3.33137Z" fill="#414141"/>
<path d="M57.9535 18.2188C57.7483 18.3702 57.5035 18.4887 57.2255 18.5874C56.9475 18.6862 56.696 18.7322 56.4644 18.7322C55.7165 18.7322 55.0746 18.4755 54.5517 17.9687C54.0289 17.4553 53.7708 16.83 53.7708 16.0929C53.7708 15.3491 54.0289 14.7238 54.5517 14.2104C55.0746 13.6904 55.7165 13.4337 56.4644 13.4337C56.696 13.4337 56.9541 13.4864 57.2387 13.5851C57.5233 13.6839 57.7682 13.8155 57.9866 13.98C58.1719 14.1117 58.3837 14.0919 58.4829 13.9537L59.4889 12.4859C59.5749 12.3609 59.5352 12.1634 59.3764 12.0515C58.9859 11.7685 58.516 11.5381 57.9667 11.3604C57.4174 11.1761 56.9144 11.084 56.4644 11.084C55.7629 11.084 55.0944 11.2156 54.4657 11.4789C53.837 11.7356 53.3009 12.091 52.8442 12.5386C52.3942 12.9796 52.0368 13.5127 51.7721 14.1314C51.5074 14.7501 51.375 15.4018 51.375 16.0929C51.375 16.784 51.5074 17.4356 51.7721 18.0543C52.0368 18.673 52.3942 19.2061 52.8442 19.6471C53.3009 20.0881 53.837 20.4435 54.4657 20.7068C55.0944 20.9635 55.7629 21.0952 56.4644 21.0952C56.9277 21.0952 57.4307 21.0096 57.9733 20.8319C58.5227 20.6542 58.9727 20.4304 59.3301 20.1605C59.4955 20.0486 59.5683 19.8512 59.4889 19.7261L58.5028 18.2386C58.3969 18.0872 58.1587 18.0806 57.9535 18.2188Z" fill="#414141"/>
<path d="M60.7265 20.5423C60.7265 20.7595 60.8589 20.8845 61.0773 20.8845H67.4307C67.6491 20.8845 67.7881 20.7529 67.7881 20.5423V19.1206C67.7881 18.8507 67.6028 18.673 67.305 18.673H63.1024V17.0341H66.2924C66.5307 17.0341 66.6763 16.9024 66.6763 16.6852V15.4347C66.6763 15.2043 66.5307 15.0727 66.2924 15.0727H63.1024V13.4798H67.305C67.5366 13.4798 67.6558 13.3613 67.6558 13.131V11.6171C67.6558 11.3999 67.5234 11.2683 67.305 11.2683H61.0773C60.8589 11.2683 60.7265 11.3999 60.7265 11.6171V20.5423Z" fill="#414141"/>
<path d="M75.174 15.7901C75.7233 15.4281 76.0675 14.7501 76.0675 14.0459C76.0675 13.1705 75.7829 12.4859 75.2204 11.9989C74.6578 11.5118 73.8703 11.2683 72.851 11.2683H69.3765C69.2044 11.2683 69.1184 11.3538 69.1184 11.5184V20.6344C69.1184 20.799 69.2044 20.8845 69.3765 20.8845H73.129C74.1945 20.8845 75.0218 20.6278 75.6108 20.121C76.2065 19.6142 76.5043 18.9034 76.5043 17.9885C76.5043 17.508 76.3852 17.067 76.1469 16.6655C75.9087 16.264 75.5844 15.9744 75.174 15.7901ZM72.8246 13.4074C73.3474 13.4074 73.6717 13.7168 73.6717 14.217C73.6717 14.7172 73.3474 15.0332 72.8246 15.0332H71.5208V13.4074H72.8246ZM71.5208 18.7454V16.8169H73.0959C73.7114 16.8169 74.1019 17.1789 74.1019 17.7647C74.1019 18.3636 73.7114 18.7454 73.0959 18.7454H71.5208Z" fill="#414141"/>
<path d="M77.6956 20.5423C77.6956 20.7595 77.8279 20.8845 78.0463 20.8845H84.3998C84.6182 20.8845 84.7572 20.7529 84.7572 20.5423V19.1206C84.7572 18.8507 84.5719 18.673 84.2741 18.673H80.0715V17.0341H83.2615C83.4997 17.0341 83.6453 16.9024 83.6453 16.6852V15.4347C83.6453 15.2043 83.4997 15.0727 83.2615 15.0727H80.0715V13.4798H84.2741C84.5057 13.4798 84.6248 13.3613 84.6248 13.131V11.6171C84.6248 11.3999 84.4925 11.2683 84.2741 11.2683H78.0463C77.8279 11.2683 77.6956 11.3999 77.6956 11.6171V20.5423Z" fill="#414141"/>
<path d="M88.1457 11.2683H87.2853H86.4316C86.2264 11.2683 86.0874 11.4197 86.0874 11.6237V20.5423C86.0874 20.7595 86.2132 20.8911 86.4316 20.8911H88.1258C88.3575 20.8911 88.4898 20.7595 88.4898 20.5423V17.9226H89.648C90.6805 17.9226 91.5144 17.6199 92.1563 17.0209C92.7983 16.4154 93.1226 15.6124 93.1226 14.6119C93.1226 13.5983 92.7983 12.7887 92.1563 12.1832C91.5144 11.571 90.6805 11.2683 89.648 11.2683H88.1457ZM88.4898 15.7572V13.4337H89.5488C89.8863 13.4337 90.1709 13.5456 90.3893 13.7694C90.6143 13.9866 90.7268 14.2631 90.7268 14.5988C90.7268 14.9344 90.6143 15.2109 90.3893 15.4281C90.1709 15.6453 89.8863 15.7572 89.5488 15.7572H88.4898Z" fill="#414141"/>
<path d="M100.389 11.2683H97.431C96.3986 11.2683 95.5581 11.571 94.9161 12.1832C94.2742 12.7887 93.9565 13.5983 93.9565 14.6053C93.9565 15.8098 94.5058 16.8037 95.4522 17.3632L93.7579 20.4896C93.652 20.6805 93.7712 20.8911 93.983 20.8911H95.9618C96.1537 20.8911 96.2398 20.8253 96.3655 20.5949L97.7818 17.8832H98.7679V20.5423C98.7679 20.7595 98.9003 20.8911 99.1319 20.8911H100.826C101.045 20.8911 101.17 20.7595 101.17 20.5423V11.6171C101.17 11.4131 101.031 11.2683 100.826 11.2683H100.389ZM97.5303 15.823C97.1928 15.823 96.9082 15.7045 96.6832 15.4676C96.4648 15.224 96.3523 14.9344 96.3523 14.5922C96.3523 14.2499 96.4648 13.9735 96.6832 13.7563C96.9016 13.5391 97.1862 13.4272 97.5303 13.4272H98.7679V15.823H97.5303Z" fill="#414141"/>
<path d="M109.039 11.2683C108.874 11.2683 108.788 11.3538 108.788 11.525V14.8489H105.168V11.525C105.168 11.3538 105.082 11.2683 104.916 11.2683H103.05C102.878 11.2683 102.792 11.3538 102.792 11.525V20.6344C102.792 20.8055 102.878 20.8911 103.05 20.8911H104.916C105.082 20.8911 105.168 20.8055 105.168 20.6344V17.0143H108.788V20.6344C108.788 20.8055 108.874 20.8911 109.039 20.8911H110.912C111.078 20.8911 111.164 20.8055 111.164 20.6344V11.525C111.164 11.3538 111.078 11.2683 110.912 11.2683H109.039Z" fill="#414141"/>
<path d="M112.342 16.0994C112.342 16.784 112.474 17.4356 112.732 18.0543C112.997 18.6664 113.354 19.1995 113.798 19.6405C114.248 20.0815 114.784 20.437 115.406 20.7002C116.028 20.9569 116.683 21.0886 117.378 21.0886C118.305 21.0886 119.152 20.8714 119.92 20.4304C120.694 19.9894 121.296 19.3838 121.74 18.6203C122.183 17.8568 122.408 17.0143 122.408 16.0994C122.408 15.4083 122.276 14.7567 122.011 14.138C121.753 13.5127 121.396 12.9796 120.945 12.5386C120.502 12.0976 119.966 11.7422 119.344 11.4855C118.728 11.2222 118.073 11.0906 117.378 11.0906C116.683 11.0906 116.028 11.2222 115.406 11.4855C114.784 11.7422 114.248 12.0976 113.798 12.5386C113.354 12.9796 112.997 13.5127 112.732 14.138C112.474 14.7567 112.342 15.4083 112.342 16.0994ZM114.738 16.0994C114.738 15.3623 114.996 14.7436 115.505 14.2367C116.015 13.7299 116.644 13.4732 117.378 13.4732C118.113 13.4732 118.735 13.7299 119.245 14.2367C119.754 14.7436 120.012 15.3623 120.012 16.0994C120.012 16.83 119.754 17.4422 119.245 17.949C118.735 18.4558 118.113 18.7059 117.378 18.7059C116.637 18.7059 116.008 18.4558 115.499 17.949C114.989 17.4422 114.738 16.83 114.738 16.0994Z" fill="#414141"/>
<path d="M129.304 11.2617C129.119 11.2617 128.967 11.4262 128.967 11.6171V14.3289C128.967 14.8225 128.808 15.2175 128.497 15.5136C128.186 15.8098 127.775 15.9612 127.253 15.9612C126.214 15.9612 125.598 15.3491 125.598 14.3157V11.6171C125.598 11.4131 125.439 11.2617 125.227 11.2617H123.527C123.348 11.2617 123.202 11.4262 123.202 11.6171V14.3223C123.202 15.5202 123.56 16.4812 124.274 17.2052C124.989 17.9226 125.916 18.2847 127.054 18.2847C127.795 18.2847 128.49 17.9885 128.967 17.5343V20.5423C128.967 20.7331 129.112 20.8845 129.304 20.8845H131.018C131.21 20.8845 131.363 20.7266 131.363 20.5357V11.6171C131.363 11.4131 131.224 11.2617 131.038 11.2617H129.304Z" fill="#414141"/>
<path d="M138.715 15.8033L141.793 11.7224C141.952 11.5118 141.885 11.288 141.641 11.288H139.463C139.232 11.288 139.106 11.3144 138.954 11.5184L136.445 14.8686H135.38V11.525C135.38 11.3604 135.294 11.2749 135.128 11.2749H133.242C133.07 11.2749 132.984 11.3604 132.984 11.525V20.6278C132.984 20.799 133.07 20.8845 133.242 20.8845H135.128C135.294 20.8845 135.38 20.799 135.38 20.6278V17.1196H136.743L139.179 20.7529C139.265 20.8516 139.384 20.9043 139.523 20.9043H141.72C141.952 20.9043 142.011 20.6739 141.879 20.483L138.715 15.8033Z" fill="#414141"/>
<path d="M148.193 11.5842C148.12 11.3933 147.941 11.2617 147.756 11.2617H146.359C146.174 11.2617 145.995 11.3802 145.909 11.5842L142.375 20.5028C142.289 20.7331 142.388 20.8911 142.633 20.8911H144.506C144.711 20.8911 144.884 20.7595 144.936 20.5752L145.367 19.318H148.722L149.159 20.5818C149.232 20.7661 149.397 20.8977 149.582 20.8977H151.462C151.72 20.8977 151.806 20.7266 151.72 20.5094L148.193 11.5842ZM147.041 14.4145L148.04 17.3303H146.042L147.041 14.4145Z" fill="#414141"/>
</svg>
